# xmcd CD database file
#
# Track frame offsets:
#	150
#	17000
#	28435
#	42312
#	55212
#	71637
#	84462
#	96950
#	109412
#	122712
#	134537
#	153162
#	163907
#	174087
#	187225
#	198850
#	211117
#	230267
#
# Disc length: 3289 seconds
#
# Revision: 1
# Processed by: cddbd v1.5.2PL0 Copyright (c) Steve Scherf et al.
# Submitted via: CDex 1.51
#
DISCID=fb0cd712
DTITLE=Moe Bandy and Joe Stampley - Live At Billy Bob's Texas
DYEAR=2000
DGENRE=Country
TTITLE0=All These Things
TTITLE1=Everyday I Have To Cry Some
TTITLE2=Do You Ever Fool Around
TTITLE3=Whiskey Chasin'
TTITLE4=Penny
TTITLE5=Roll On Big Mama
TTITLE6=Just Because/Window Faces South
TTITLE7=Following The Feeling
TTITLE8=Bandy The Rodeo Clown
TTITLE9=Here I Am Drunk Again
TTITLE10=Americana
TTITLE11=Hey Joe Hey Moe
TTITLE12=Tell Old I Ain't Here To Get On Home
TTITLE13=Honky Tonk Queen
TTITLE14=Good Ol' Men
TTITLE15=Holding The Bag
TTITLE16=Where's The Dress
TTITLE17=Just good Ol' Boys
EXTD=YEAR: 2000
EXTT0=
EXTT1=
EXTT2=
EXTT3=
EXTT4=
EXTT5=
EXTT6=
EXTT7=
EXTT8=
EXTT9=
EXTT10=
EXTT11=
EXTT12=
EXTT13=
EXTT14=
EXTT15=
EXTT16=
EXTT17=
PLAYORDER=
